<?xml version="1.0" encoding="UTF-8"?>
<svg id="Layer_2" data-name="Layer 2" xmlns="http://www.w3.org/2000/svg" viewBox="0 0 234.59 286.29">
  <defs>
    <style>
      .cls-1 {
        fill: #fffdfc;
      }

      .cls-2 {
        fill: #fed400;
      }

      .cls-3 {
        fill: #e12027;
      }

      .cls-4 {
        fill: #e21f26;
      }
    </style>
  </defs>
  <g id="Layer_1-2" data-name="Layer 1">
    <path class="cls-3" d="M230.83,81.97c-2.18,24.89-6.46,49.26-14.39,72.96-10.88,32.53-27.91,61.47-50.56,87.22-13.87,15.77-29.13,29.98-45.67,42.89-2.19,1.71-3.64,1.62-5.81,.03C57.94,243.73,22.91,188.73,9.41,120.09c-3.7-18.85-5.48-37.98-7.12-57.12C.72,44.56,.36,26.12,.03,7.67-.11,.01,.02,0,7.7,0H117.52c37.35,0,74.7,0,112.06,.01,4.95,0,4.91,.01,4.97,4.96,.36,25.74-1.48,51.36-3.72,77Z"/>
    <g>
      <path class="cls-2" d="M190.79,113.16c.33,.18,.6-.06,.89-.15,5.66-1.81,11.25,1.52,12.32,7.35,.9,4.94-2.72,9.98-7.68,10.74-1.64,.25-3.21,.09-4.77-.43-.22-.07-.42-.27-.73-.11,1.55,4.97,.47,9.1-4.11,11.9-3.27,2-7.5,1.64-10.44-.88-3.92-3.36-4.37-7.51-2.21-12.18-1.47,.34-2.83,.64-4.18,.98-.89,.22-1.79,.31-2.71,.31-13.17-.01-26.35,0-39.52,0-1.73,0-1.54-.22-1.54,1.49,0,12.61-.02,25.22,.02,37.84,0,2.13-.18,4.2-.75,6.24-.2,.74-.35,1.49-.56,2.36,4.98-2.25,9.28-1.62,12.6,2.78,2.28,3.02,2.33,7.28,.17,10.39-2.89,4.17-6.88,5.11-11.62,3.59-.15,.37,.08,.64,.18,.91,1.79,5.17-1.26,10.77-6.56,12.12-5.34,1.36-10.67-2.16-11.56-7.65-.24-1.47-.1-2.94,.36-4.37,.1-.32,.36-.62,.23-1.04,0-.01,0,.01-.02,.04,.03,0,.06,.03,.08,.02,.02-.01,.02-.05,.03-.08-.02,0-.04-.01-.09,.02-1.35,.36-2.65,.75-4.05,.72-4.77-.12-8.81-4-9.08-8.71-.32-5.47,3.83-9.47,8.21-9.94,1.8-.19,3.49,.08,5.13,.82,.22,.1,.42,.27,.69,.26,.26-.19,.08-.44,.07-.66,0-.03-.02-.07-.03-.1-1.05-3.32-1.16-6.74-1.15-10.19,.06-11.7,.02-23.39,.02-35.09,0-.21,0-.42,0-.63,0-1.13,0-1.14-1.16-1.14-11.42,0-22.83,0-34.25,0-.49,0-.98-.02-1.48,0-3.49,.18-6.94-.09-10.3-1.12-.19-.06-.4-.08-.69-.15,2.22,5.03,1.57,9.36-2.93,12.65-3.16,2.31-7.48,2.15-10.66-.15-1.8-1.3-2.98-3.04-3.58-5.18-.59-2.11-.36-4.16,.44-6.16-.35-.22-.59,0-.84,.1-5.82,2.1-12.41-1.91-12.54-8.65-.13-6.51,6.02-10.84,11.94-9.15,.4,.12,.81,.24,1.21,.36,.05,.03,.13,.1,.15,.09,.12-.07,.07-.16,0-.24-.19-.78-.47-1.54-.59-2.35-.74-4.96,2.61-9.68,7.67-10.54,5.49-.93,9.81,2.79,10.75,7.25,.43,2.03,.19,3.98-.64,5.87-.12,.28-.35,.52-.32,.86,.29,.14,.55,.02,.82-.05,.96-.23,1.92-.44,2.87-.68,1.2-.31,2.4-.44,3.64-.43,12.82,.02,25.65,.01,38.47,.01,.25,0,.49,0,.74,0,1.37,0,1.26,.09,1.26-1.25,0-12.68,.02-25.37-.02-38.05,0-2.02,.17-3.98,.7-5.93,.23-.83,.51-1.67,.52-2.64-1.1,.46-2.12,.89-3.22,1.1-5.46,1.03-10.73-3.27-10.95-8.82-.18-4.5,3.07-9.34,8.9-9.77,1.43-.11,2.78,.27,4.13,.7,.09,.06,.18,.1,.24-.01,.01-.02-.06-.1-.09-.15-.37-1.28-.74-2.55-.72-3.91,.07-4.99,3.98-9.06,9.11-9.22,5.43-.16,9.01,3.98,9.53,8.08,.19,1.54,0,3-.47,4.46-.07,.23-.25,.43-.16,.76,5.24-1.63,9.51-.41,12.2,4.58,1.82,3.37,1.11,7.6-1.46,10.38-2.99,3.23-6.74,3.83-11.67,1.86-.25,.22-.03,.45,0,.67,.04,.28,.11,.55,.19,.82,.75,2.58,.96,5.21,.95,7.9-.06,12.19-.03,24.37-.03,36.56,0,.25,0,.49,0,.74,0,1.15,0,1.15,1.14,1.15,12.71,0,25.43,.02,38.14-.02,2.05,0,4.05,.16,6.03,.71,.8,.22,1.61,.46,2.44,.52,.14-.42-.13-.66-.24-.93-1.48-3.6-1.11-6.99,1.42-9.96,2.5-2.94,5.8-3.95,9.51-2.96,3.77,1,6.03,3.58,6.81,7.4,.29,1.46,.19,2.94-.26,4.37-.1,.33-.3,.64-.27,1.01-.08,.11-.1-.08-.07,.05,0,.02,.02,.05,.03,.05,.08-.02,.09-.06,.03-.12Z"/>
      <path class="cls-1" d="M32.77,35.94c.35,.05,.52,.34,.75,.55,5.89,5.19,12.12,9.91,19.12,13.54,3.38,1.75,6.88,3.18,10.66,3.8,2.49,.41,4.97,.35,7.41-.33,1.99-.56,3.79-1.49,5.29-2.92,.31-.29,.55-.44,1-.23,2.78,1.27,5.56,2.52,8.36,3.74,.44,.19,.55,.44,.55,.88-.01,3.34-.02,6.67,0,10.01,0,.49-.15,.76-.59,.98-2.77,1.44-5.53,2.9-8.29,4.36-.38,.2-.61,.19-.86-.19-.45-.67-1-1.27-1.6-1.81-2.06-1.9-4.44-2.93-7.29-3.1-5.43-.34-10.15,1.36-14.44,4.54-3.52,2.61-6.6,5.67-9.51,8.93-1.24,1.39-2.42,2.83-3.63,4.24-.2,.23-.33,.53-.75,.72-2.9-6.51-4.8-13.3-6.03-20.3-1.99-11.32-1.41-21.62-.16-27.42Z"/>
      <path class="cls-1" d="M201.93,36c2.52,16.47,.11,32.3-6.26,47.7-.55-.29-.77-.73-1.07-1.09-3.07-3.72-6.28-7.3-9.92-10.47-2.02-1.76-4.17-3.32-6.52-4.62-3.84-2.12-7.98-2.65-12.25-2.14-2.96,.35-5.26,2.02-7.14,4.29-.22,.27-.43,.55-.65,.83-.32,.05-.54-.16-.78-.28-2.64-1.38-5.27-2.79-7.93-4.15-.59-.3-.78-.64-.77-1.29,.03-3.2,.03-6.39,0-9.59,0-.62,.19-.93,.76-1.18,2.7-1.17,5.39-2.38,8.08-3.6,.44-.2,.72-.17,1.1,.17,3.1,2.82,6.84,3.74,10.92,3.45,4.46-.32,8.52-1.98,12.44-3.99,5.52-2.84,10.55-6.42,15.35-10.34,1.33-1.09,2.61-2.24,3.93-3.35,.17-.15,.3-.41,.72-.34Z"/>
      <path class="cls-2" d="M72.92,167.79c0-11.31,0-22.62,0-33.92,0-1.38-.08-1.26,1.24-1.26,1.58,0,3.16,.02,4.74-.01,.56,0,.77,.21,.72,.74-.02,.21,0,.42,0,.63,0,22.37,0,44.74,0,67.11,0,.53,0,1.05-.1,1.57-.34,1.67-1.81,2.78-3.53,2.67-1.64-.11-2.95-1.42-3.06-3.08-.03-.38-.01-.77-.01-1.16,0-11.1,0-22.19,0-33.29Z"/>
      <path class="cls-2" d="M154.96,167.67c0-11.17,0-22.34,0-33.51,0-.21,0-.42,0-.63,.02-.91,.02-.92,.94-.93,1.69,0,3.37,.01,5.06,0,.55,0,.77,.2,.72,.74-.02,.21,0,.42,0,.63,0,22.41,0,44.82,0,67.23,0,.6,0,1.19-.18,1.77-.47,1.54-1.94,2.51-3.57,2.35-1.53-.15-2.8-1.42-2.95-2.97-.04-.42-.02-.84-.02-1.26,0-11.13,0-22.27,0-33.4Z"/>
      <path class="cls-2" d="M73.04,69.57c.71,.63,1.27,1.23,1.73,1.94,.21,.32,.4,.66,.61,.98,.41,.62,.42,.63,1.07,.31,1-.5,1.98-1.03,2.95-1.53,.33,.26,.22,.56,.22,.83,0,12.68,0,25.35,0,38.03,0,.98-.01,.98-.99,.99-1.62,0-3.23,0-4.85,0-.85,0-.85-.02-.86-.89,0-.18,0-.35,0-.53,0-12.96,0-25.91,0-38.87,0-.37-.06-.75,.11-1.25Z"/>
      <path class="cls-2" d="M155.08,71.21c1.02,.53,1.94,1.02,2.87,1.5,.82,.42,.84,.43,1.3-.34,.54-.91,1.15-1.77,1.93-2.49,.1-.09,.19-.2,.39-.18,.2,.22,.1,.51,.1,.77,0,13.17,0,26.35,0,39.52,0,.18-.01,.35,0,.53,.02,.4-.16,.57-.56,.57-1.86,0-3.72,0-5.59,0-.39,0-.59-.15-.57-.56,.01-.25,0-.49,0-.74,0-12.47,0-24.94,0-37.42,0-.35-.06-.7,.12-1.18Z"/>
      <path class="cls-2" d="M161.67,50.41c-1.06-.47-1.72-1.13-2.36-1.82-.8-.85-.69-.79-1.68-.35-.83,.36-1.65,.72-2.59,1.13-.11-1.23-.21-2.34,.04-3.42,.35-1.56,1.92-2.65,3.44-2.52,1.69,.15,3,1.4,3.13,3.15,.09,1.21,.02,2.44,.02,3.83Z"/>
      <path class="cls-2" d="M79.53,49.38c-1.02-.45-1.88-.83-2.74-1.21-.79-.34-.8-.34-1.42,.3-.68,.69-1.33,1.43-2.23,1.84-.32-.17-.2-.44-.21-.66-.01-.98-.03-1.96,0-2.94,.06-1.79,1.44-3.19,3.19-3.28,1.68-.09,3.18,1.16,3.43,2.9,.14,.96,.13,1.93-.02,3.05Z"/>
      <path class="cls-4" d="M108.64,48.19c.03,.05,.11,.12,.09,.15-.06,.12-.16,.07-.24,.01,.05-.05,.1-.11,.15-.16Z"/>
      <path class="cls-4" d="M43.75,113.08c.06,.08,.11,.17,0,.24-.02,.01-.1-.06-.15-.09,.05-.05,.1-.1,.15-.15Z"/>
      <path class="cls-4" d="M190.79,113.16c.07,.06,.06,.1-.03,.12,0,0-.02-.03-.03-.05-.03-.14-.01,.06,.07-.05,0,0-.02-.01-.02-.01Z"/>
      <path class="cls-4" d="M108.63,195.32s.04,.01,.07,.02c0,.03-.01,.07-.03,.08-.02,.01-.06,0-.08-.02l.05-.08Z"/>
    </g>
  </g>
</svg>