<?xml version="1.0" encoding="UTF-8"?>
<svg id="Layer_2" data-name="Layer 2" xmlns="http://www.w3.org/2000/svg" viewBox="0 0 266.3 302.11">
  <defs>
    <style>
      .cls-1 {
        fill: #c98b2b;
      }
    </style>
  </defs>
  <g id="Layer_1-2" data-name="Layer 1">
    <path class="cls-1" d="M142.57,193.24c-.88,1.08-.57,2.19-.57,3.2-.02,22.24-.01,44.48-.04,66.71,0,1.84,.32,3.58,.93,5.3,4.45,12.63,12.1,22.85,23,30.65,.91,.65,2.05,1.08,2.68,2.2-.9,.83-1.9,.53-2.8,.53-6.81,.03-13.63-.05-20.44,.06-2.02,.03-3.42-.6-4.64-2.17-2.03-2.61-4.07-5.19-5.88-7.95-.45-.69-.73-1.56-1.83-1.88-1.41,1.22-2.15,3.02-3.29,4.51-1.88,2.44-3.32,5.49-5.99,6.96-2.49,1.37-5.64,.42-8.49,.47-4.79,.09-9.58,.03-14.37,.01-1.02,0-2.04-.1-3.36-.17,.84-1.48,2.06-1.96,3.04-2.66,11.07-7.96,18.77-18.4,23.12-31.31,.52-1.53,.77-3.07,.77-4.69-.02-39.26-.01-78.52-.01-117.78,0-.53-.04-1.06-.01-1.6,.06-1.37-.64-1.92-1.95-1.87-.64,.03-1.28,0-1.92,0-5.43,0-10.86,.1-16.29-.04-2.38-.06-4.3,.64-6.21,1.97-11.07,7.76-18.92,17.95-23.5,30.66-.25,.7-.5,1.4-.72,2.11-.34,1.06-1.06,1.5-2.16,1.5-4.79-.01-9.58,.04-14.37-.02-1.67-.02-1.92-.43-1.47-2.3,1.6-6.66,4.12-12.97,7.4-18.97,2.35-4.31,5.11-8.35,8.19-12.17,.53-.65,1.01-1.34,1.49-1.97-.58-1.17-1.55-.75-2.3-.75-11.5-.03-23-.03-34.49-.02-2.86,0-2.86,.03-3.44,2.86-2.41,11.61-12.16,20.92-23.4,22.35-4.76,.61-5.47-.04-4.8-4.9,1-7.21,4.71-12.89,10.21-17.51,.81-.68,1.61-1.37,2.4-2.06,.05-.05,.02-.19,.04-.39-.67-.64-1.57-.34-2.36-.35-4.15-.04-8.3-.06-12.46,0-1.64,.02-2.29-.62-2.27-2.25,.05-4.15-.01-8.3,.02-12.45,.02-2.73,.06-2.78,2.94-2.79,11.18-.02,22.36,0,33.54-.03,1.26,0,2.56,.26,3.86-.41,.05-1.33-1.18-1.63-1.91-2.26-5.18-4.43-8.91-9.76-10.01-16.58-1.02-6.32-.37-6.91,5.82-5.6,11.43,2.41,18.66,9.63,21.91,20.82,.21,.71,.39,1.45,.44,2.19,.1,1.34,.83,1.86,2.09,1.83,.64-.01,1.28,.02,1.92,.02,19.91,0,39.82,0,59.73,0,.53,0,1.07,.02,1.6-.01,2.16-.13,2.41-.29,2.42-2.42,.05-6.49,0-12.98,.03-19.47,0-1.26-.55-2.24-1.21-3.22-10.43-15.5-24.86-24.75-43.33-27.66-1.99-.31-4.02-.5-6.03-.57-2.53-.09-2.81,.22-2.74,2.69,.14,4.48,.82,8.89,1.98,13.23,1.61,6.01,4.07,11.63,7.32,16.93,.53,.87,1.4,1.61,1.36,2.81-.81,.76-1.82,.48-2.73,.49-4.68,.03-9.37-.08-14.05,.05-2.09,.06-3.3-.62-4.18-2.58-4.52-10.02-7.21-20.48-7.3-31.49-.12-14.58,0-29.15-.07-43.73-.01-2.14,.63-3.55,2.43-4.76,4.07-2.73,8.14-5.44,12.44-7.8,2.34-1.29,2.7-1.1,2.71,1.6,.04,9.68,.02,19.36,.02,29.05q0,5.72,5.69,6.11c16.3,1.14,30.84,6.85,43.73,16.85,1.07,.83,1.98,1.9,3.28,2.32,.92-.56,.66-1.39,.66-2.07,.02-7.45,.03-14.9,0-22.34,0-2.69-.06-2.64-2.72-3.23-10.91-2.4-18.05-9.04-21.75-19.47-.75-2.12-1.01-4.34-1.01-6.59,0-1.59,.68-2.27,2.31-2.29,4.05-.05,7.78,1.06,11.32,2.92,3.73,1.96,6.79,4.73,9.45,7.98,.57,.7,.84,1.74,2.15,1.95,.42-.99,.26-2.05,.26-3.07,.01-7.55,0-15.11,0-22.66,0-3.58,.02-3.66,3.43-3.73,3.62-.08,7.24-.07,10.86,.02,3.25,.08,3.26,.15,3.28,3.55,.02,3.3,0,6.6,.02,9.9,0,1.05-.2,2.13,.38,3.26,1.25-.09,1.57-1.27,2.19-2.01,3.98-4.8,8.82-8.28,14.9-9.92,1.66-.45,3.35-.63,5.05-.67,2.43-.06,2.77,.31,2.82,2.68,.06,2.81-.49,5.53-1.6,8.09-4.05,9.28-10.85,15.35-20.87,17.54-2.81,.61-2.87,.58-2.87,3.5-.01,28.3-.01,56.6,0,84.91,0,3.29,.08,3.35,3.45,3.37,5.64,.03,11.29-.04,16.93,.03,1.9,.02,3.5-.49,5.07-1.55,11.59-7.82,19.75-18.3,24.4-31.48,1.31-3.73,1.01-3.23,4.69-3.27,3.83-.03,7.67-.04,11.5,0,2.82,.03,3.01,.25,2.3,2.95-2,7.67-5.06,14.89-9.22,21.65-1.96,3.18-4.13,6.19-6.47,9.1-.45,.55-1.27,1.06-.96,1.87,.4,1.03,1.46,.66,2.24,.67,3.51,.05,7.03,.05,10.54,.01,2.76-.03,2.79-.05,3.33-2.69,1.78-8.69,6.81-14.98,14.35-19.39,3.45-2.02,7.22-3.15,11.25-3.18,2.44-.02,2.83,.34,2.78,2.76-.14,6.61-2.87,12.14-7.3,16.89-1.58,1.7-3.39,3.18-5.21,4.87,.97,1.08,2.2,.72,3.27,.73,10.97,.03,21.93,.01,32.9,.02,5.2,0,4.38-.19,4.44,4.48,.04,3.3,.03,6.6,0,9.9-.02,3.03-.05,3.07-2.98,3.09-3.83,.03-7.67,0-11.5,.02-.9,0-1.81,.11-2.84,.17,.5,1.37,1.59,1.72,2.37,2.36,4.79,3.98,8.31,8.79,9.95,14.87,.53,1.98,.65,3.98,.63,6.01-.01,1.35-.68,1.91-1.96,1.96-2.04,.08-4.07-.13-6-.74-10.82-3.44-17.78-10.58-20.28-21.72-.7-3.11-.67-2.91-3.73-2.91-17.89,0-35.77,0-53.66,0-10.22,0-20.44,0-30.66,0-3.59,0-3.62,.02-3.63,3.44-.02,5.75,.01,11.49-.03,17.24-.01,1.64,.28,3.11,1.25,4.5,11.67,16.92,27.64,26.4,48.22,27.9,3.87,.28,4.04,.1,3.77-3.75-.72-10.15-3.63-19.62-8.93-28.34-.64-1.06-1.51-2.03-1.68-3.03,.22-.7,.56-.78,.86-.79,5.64-.04,11.28-.02,16.92-.11,1.75-.03,2.39,1,3,2.33,4.04,8.79,6.59,17.97,7.22,27.64,.64,9.88,.23,19.78,.31,29.68,.05,6.17-.04,12.34,.03,18.51,.02,1.78-.56,2.96-2.04,3.99-4.11,2.86-8.3,5.59-12.67,8.02-2.61,1.46-2.83,1.33-2.87-1.56-.04-3.05,0-6.11,0-9.53-1.58,.64-1.99,1.8-2.67,2.65-4.43,5.48-9.87,9.47-16.93,10.6-6.66,1.06-6.87,.6-5.81-5.92,1.69-10.43,11.02-19.66,21.62-21.91q3.77-.8,3.78-4.59c0-1.49-.02-2.98-.05-4.47-.02-1.02-.56-1.56-1.58-1.62-.64-.04-1.27-.08-1.91-.11-17.47-.83-33.02-6.74-46.71-17.6-.74-.59-1.37-1.35-2.53-1.7Z"/>
    <path class="cls-1" d="M107.03,184.11c.54,2.09,.27,4.01,.29,5.9,.04,3.72-.11,7.45,.05,11.16,.09,2.16-.77,3.21-2.69,4.08-9.42,4.26-19.25,6.73-29.57,7.27-.74,.04-1.49,.05-2.23,.1-1.12,.06-1.79,.6-1.82,1.78-.02,.85-.08,1.7-.04,2.55,.08,1.79-.63,3.87,.43,5.29,.99,1.33,3.12,.94,4.74,1.37,10.32,2.79,19,12.39,20.32,22.77,.71,5.6,.07,5.57-4.93,4.97-7.33-.89-13.05-4.83-17.7-10.43-.66-.8-1.08-1.84-2.39-2.49-1.21,3.8,.24,7.78-.83,11.41-.99,.22-1.59-.28-2.22-.63-4.47-2.47-8.75-5.25-12.95-8.16-1.46-1.01-2.08-2.17-2.05-3.97,.09-7.02,.04-14.03,.02-21.05,0-3.34-.04-3.37-3.38-3.39-6.91-.02-13.83-.08-20.74,.03-2.03,.03-3.35-.6-4.5-2.29-2.81-4.13-5.6-8.28-8-12.67-1.38-2.52-1.23-2.77,1.74-2.78,17.66-.02,35.32,0,52.98-.03,2.55,0,5.12-.09,7.64-.42,8.88-1.14,17.12-4.16,24.75-8.85,.89-.55,1.67-1.33,3.09-1.55Z"/>
    <path class="cls-1" d="M159.53,81.68c-.72-.74-.51-1.52-.51-2.23-.02-4.89,.08-9.78-.06-14.67-.06-2.13,.71-3.25,2.64-4.12,9.61-4.36,19.67-6.81,30.21-7.29,.64-.03,1.28-.04,1.91-.08,1.01-.05,1.56-.58,1.58-1.61,.02-.85,.05-1.7,.05-2.55,0-9.89-.01-19.78,.02-29.67,0-1.12-.33-2.32,.42-3.43,.31,.02,.67-.06,.92,.07,5.21,2.7,10.09,5.9,14.86,9.31,1.36,.97,1.36,2.27,1.36,3.67,0,6.59,0,13.18,0,19.78q0,4.46,4.61,4.46c6.49,0,12.98,.07,19.47-.03,2.02-.03,3.35,.59,4.51,2.29,2.82,4.13,5.57,8.3,8,12.67,1.33,2.4,1.21,2.6-1.63,2.6-17.66,.02-35.32,.02-52.98,0-3.74,0-7.43,.37-11.1,1.05-7.94,1.48-15.3,4.44-22.11,8.77-.62,.39-1.17,.94-2.15,1Z"/>
    <path class="cls-1" d="M229.96,203.47c0-2.12,.03-4.25,0-6.37-.03-1.45,.56-2.16,2.06-2.16,5.63,.02,11.27,0,16.9,.02,1.38,0,1.67,.68,1.04,1.85-2.78,5.15-5.92,10.07-9.44,14.75-.3,.4-.79,.87-1.24,.92-2.75,.31-5.51,.34-8.26,.03-1.13-.13-1.05-1.17-1.05-2.02-.02-2.34,0-4.67,0-7.01Z"/>
    <path class="cls-1" d="M25.87,70.85c-2.76,0-5.53,.06-8.29-.02-1.71-.05-1.94-.43-1.12-1.94,2.69-4.96,5.71-9.7,9.06-14.24,.61-.83,1.36-1.3,2.41-1.29,2.23,.02,4.46,.02,6.7,.02,1.19,0,1.7,.6,1.7,1.78-.02,4.57-.03,9.14,.01,13.7,.01,1.55-.75,2.02-2.17,2.01-2.76-.04-5.53-.01-8.29-.01Z"/>
    <path class="cls-1" d="M176.67,167.47c-.27,4.96-4.41,8.57-9.46,8.24-4.84-.31-8.34-4.36-8.05-9.29,.28-4.8,4.36-8.39,9.25-8.12,4.79,.26,8.52,4.4,8.26,9.17Z"/>
    <path class="cls-1" d="M40.58,181.82c-4.78,.07-8.77-3.8-8.86-8.59-.09-4.84,3.67-8.8,8.48-8.95,4.98-.15,8.94,3.7,8.98,8.73,.04,4.84-3.77,8.74-8.61,8.81Z"/>
    <path class="cls-1" d="M106.95,215.09c4.9-.02,8.76,3.73,8.84,8.58,.08,4.78-3.82,8.79-8.6,8.86-5.06,.07-8.94-3.74-8.93-8.77,.01-4.91,3.76-8.65,8.69-8.67Z"/>
    <path class="cls-1" d="M25.82,88.55c-.07,4.83-3.97,8.64-8.82,8.62-5.01-.02-8.87-4.01-8.72-9,.15-4.89,3.96-8.47,8.94-8.41,4.85,.06,8.67,3.97,8.59,8.79Z"/>
    <path class="cls-1" d="M167.97,107.29c-4.93,.04-8.74-3.65-8.82-8.54-.08-5.03,3.78-8.94,8.8-8.9,4.85,.03,8.72,3.91,8.73,8.72,0,4.82-3.85,8.68-8.71,8.72Z"/>
    <path class="cls-1" d="M108.4,101.42c-.08,4.89-3.9,8.56-8.84,8.5-4.88-.06-8.68-3.9-8.65-8.74,.03-4.95,4.07-8.83,9.06-8.7,4.83,.12,8.51,4.02,8.43,8.94Z"/>
    <path class="cls-1" d="M175.32,44.84c-4.87-.16-8.55-4.08-8.41-8.96,.14-5.05,4.11-8.71,9.19-8.48,4.82,.22,8.53,4.28,8.3,9.1-.23,4.82-4.24,8.5-9.07,8.34Z"/>
    <path class="cls-1" d="M94.37,38.52c-.03,4.84-3.88,8.64-8.75,8.64-4.89,0-8.7-3.79-8.72-8.66-.03-4.99,3.95-8.93,8.91-8.82,4.87,.11,8.6,3.96,8.57,8.84Z"/>
    <path class="cls-1" d="M108.4,167.31c-.12,4.89-3.94,8.5-8.92,8.42-4.85-.08-8.64-3.99-8.55-8.83,.09-4.98,4.12-8.78,9.13-8.6,4.86,.17,8.46,4.07,8.34,9.02Z"/>
    <path class="cls-1" d="M227.37,181.82c-4.81-.1-8.64-4.05-8.59-8.86,.06-4.84,3.94-8.69,8.76-8.68,4.99,.01,8.8,3.96,8.7,9.01-.09,4.83-4.05,8.63-8.87,8.53Z"/>
    <path class="cls-1" d="M159.36,215.09c4.91,.03,8.69,3.81,8.68,8.68,0,5.01-3.94,8.86-8.96,8.75-4.85-.1-8.56-3.97-8.51-8.87,.05-4.88,3.87-8.6,8.78-8.57Z"/>
    <path class="cls-1" d="M240.57,88.45c0-4.96,3.65-8.65,8.61-8.69,5.08-.04,8.89,3.78,8.83,8.83-.06,4.84-3.93,8.61-8.81,8.58-4.88-.03-8.62-3.81-8.63-8.73Z"/>
  </g>
</svg>