<?xml version="1.0" encoding="UTF-8"?>
<svg id="Layer_2" data-name="Layer 2" xmlns="http://www.w3.org/2000/svg" viewBox="0 0 263.23 278.12">
  <defs>
    <style>
      .cls-1 {
        fill: #00a14b;
      }

      .cls-2 {
        fill: #8cc542;
      }

      .cls-3 {
        fill: #d946ef;
      }

      .cls-4 {
        fill: #55843d;
      }

      .cls-5 {
        fill: #57534e;
      }

      .cls-6 {
        fill: #609346;
      }

      .cls-7 {
        fill: #79ac39;
      }
    </style>
  </defs>
  <g id="Layer_1-2" data-name="Layer 1">
    <g>
      <path class="cls-5" d="M209.06,263.44s-4.53-1.2-11.39-3.83c-12.16-.18-24.44-1.21-36.36-2.51-18.04-1.96-35.09-4.56-52.61-4.92-1.15,3.69-2.51,7.34-4.08,10.91l104.44,.36h0Z"/>
      <path class="cls-5" d="M197.67,259.6c-15.48-5.95-42.8-19.2-56.47-42.42-4.78-8.06-9.38-18.15-12.17-29.27-1.38-5.55-2.22-11.35-2.31-17.08,0-2.86,.19-5.68,.63-8.43,.5-2.75,1.15-5.23,2.29-8.08,2.13-5.53,5.13-10.87,8.75-15.77,3.61-4.92,7.76-9.45,12.11-13.56,4.36-4.11,8.91-7.82,13.4-11.15,1.13-.82,2.24-1.64,3.36-2.43,1.12-.77,2.22-1.54,3.31-2.29,1.1-.73,2.19-1.45,3.26-2.15,1.09-.72,2.22-1.44,3.28-2.19,2.14-1.47,4.14-2.98,5.96-4.55,.92-.76,1.76-1.59,2.6-2.36,.79-.83,1.59-1.59,2.28-2.42,2.86-3.22,4.81-6.51,5.95-9.35,2.26-5.74,1.89-9.27,1.63-9.29-.43-.11-1.12,3.26-4.17,7.95-1.52,2.33-3.73,4.88-6.7,7.3-.72,.63-1.55,1.19-2.35,1.81-.86,.57-1.7,1.18-2.64,1.74-1.83,1.15-3.85,2.25-6.01,3.32-1.08,.55-2.19,1.04-3.36,1.61-1.2,.57-2.42,1.15-3.65,1.74-1.23,.62-2.48,1.26-3.75,1.9-1.27,.65-2.53,1.36-3.83,2.06-5.15,2.85-10.49,6.14-15.77,10.02-5.28,3.87-10.53,8.33-15.39,13.52-4.87,5.17-9.28,11.15-12.79,17.81-1.76,3.21-3.36,7.09-4.46,10.85-1.07,3.78-1.76,7.59-2.19,11.36-.75,7.53-.47,14.88,.47,21.83,.31,2.25,.77,4.45,1.34,6.62,4.7,17.8,3.91,36.47-1.55,53.93,17.52,.35,34.57,2.95,52.61,4.92,11.93,1.3,24.2,2.33,36.36,2.51h0Z"/>
      <path class="cls-5" d="M70.34,88.77c.04-.15,1.38-.05,3.72,.27,2.34,.32,5.67,.84,9.67,1.8,1.99,.49,4.15,1.08,6.41,1.88,1.13,.4,2.29,.83,3.43,1.38,.58,.27,1.16,.54,1.75,.81,.59,.27,1.2,.54,1.76,.89,4.69,2.5,9.29,6.01,13.23,10.24,3.94,4.22,7.2,9.13,9.57,14.12,2.38,4.99,3.92,10.02,4.8,14.49,.23,1.11,.34,2.2,.51,3.24,.13,1.04,.33,2.03,.36,2.97,.1,1.88,.26,3.56,.24,4.97-.07,2.81-.09,4.59-.16,4.93-.2,1.38-1,2.54-2.11,3.26-1.12,.72-2.56,.98-4.06,.69-1.5-.28-2.79-1.04-3.66-1.97-.87-.94-1.34-2.05-1.16-3.19-.03-.57,1.14-5.81,.49-13.49-.35-3.82-1.21-8.21-2.78-12.71-1.57-4.49-3.91-9.07-6.95-13.18-3.03-4.11-6.75-7.72-10.69-10.5-.47-.38-.98-.69-1.49-1-.5-.31-1-.63-1.5-.94-.97-.64-2-1.17-3-1.69-2-1.02-3.97-1.87-5.82-2.61-3.7-1.47-6.89-2.5-9.11-3.27-2.22-.76-3.48-1.25-3.45-1.38h0Z"/>
      <path class="cls-5" d="M51.68,165.86c.17-.08,.82,1.2,2.33,3.11,1.49,1.9,3.96,4.38,7.45,6.53,1.74,1.07,3.73,2.06,5.91,2.83,1.09,.4,2.22,.72,3.39,.99,1.21,.27,2.5,.53,3.8,.78,5.21,1.01,10.88,1.89,16.66,3.3,5.75,1.42,11.68,3.49,16.76,6.81,1.3,.77,2.45,1.74,3.64,2.61,.56,.48,1.1,.97,1.64,1.46,.54,.49,1.08,.96,1.55,1.49,2.04,2.13,3.49,3.9,4.97,5.72,2.91,3.58,5.2,6.96,6.71,9.6,1.52,2.63,2.25,4.51,2.4,4.86,.28,.73,.37,1.51,.32,2.23-.08,.74-.29,1.44-.65,2.05-.74,1.24-1.98,2.07-3.48,2.36-1.5,.29-2.98,.05-4.11-.43-.58-.24-1.1-.56-1.5-.93-.43-.38-.73-.83-.93-1.35-.12-.26-.5-1.63-1.53-3.85-1.01-2.21-2.66-5.27-5.02-8.82-2.5-3.73-4.85-7.34-8.75-10.33-3.76-3.07-8.66-5.44-13.88-7.34-5.23-1.9-10.76-3.41-15.93-5.05-1.3-.41-2.55-.82-3.81-1.27-1.3-.46-2.53-.99-3.68-1.58-2.31-1.17-4.34-2.52-6.06-3.93-3.45-2.83-5.66-5.85-6.83-8.11-1.18-2.27-1.46-3.7-1.36-3.73h0Z"/>
      <path class="cls-5" d="M193.7,164.67c.09,.05,0,.38-.22,.96-.12,.29-.27,.64-.46,1.05-.1,.21-.21,.43-.32,.66-.14,.23-.28,.47-.42,.71-1.13,2.05-3.2,4.74-6.16,7.54-2.95,2.8-6.85,5.54-11.12,8.15-4.27,2.6-8.92,5.07-13.24,7.71-4.18,2.53-7.97,5.62-11.07,8.85-3.1,3.23-5.44,6.59-6.81,9.54-.7,1.48-1.17,2.84-1.48,4.04-.3,1.2-.42,2.24-.49,3.09-.09,1.71,.09,2.71,.08,2.91,.05,.8-.68,1.6-1.88,2.46-1.18,.84-2.88,1.74-4.85,2.25-1.97,.51-3.88,.44-5.4-.3-1.5-.72-2.53-2.12-2.61-3.77,0-.4-.07-2.54,.59-5.76,.35-1.6,.87-3.45,1.68-5.41,.81-1.95,1.89-3.99,3.23-6,5.37-8.11,14.79-15.27,25.16-19.53,5.02-2.06,9.94-3.72,14.4-5.48,4.44-1.76,8.43-3.61,11.6-5.61,6.42-3.94,9.41-8.33,9.8-8.04h0Z"/>
      <path class="cls-7" d="M41.85,268.88c45.25-19.82,79.98-12.47,119.46-8.17,34.81,3.79,72.56,5.32,101.92-10.04-63.18,52.93-129.73,11.88-221.37,18.22h0Z"/>
      <path class="cls-2" d="M37.37,82.7s21.32,25.83,42.29,7.95c0,0-13.12-25.59-42.29-7.95h0Z"/>
      <path class="cls-2" d="M160.41,60.05s-20.66,6.69-14.88,23.6c0,0,18.43-1.61,14.88-23.6h0Z"/>
      <path class="cls-2" d="M76.53,37.14s15.67,19.76,31.72,6.61c0,0-9.24-19.4-31.72-6.61h0Z"/>
      <path class="cls-2" d="M33.75,45.06s8.85,20.93,25.96,13.37c0,0-3.35-19.07-25.96-13.37h0Z"/>
      <path class="cls-2" d="M77.29,57.77s-10.31,20.63,6.8,28.85c0,0,14.42-13.8-6.8-28.85h0Z"/>
      <path class="cls-2" d="M73.96,104.43s12.64,12.71,22.93,2.14c0,0-6.59-14.04-22.93-2.14h0Z"/>
      <path class="cls-2" d="M120.77,0s-13.43,9.57-5.38,20.49c0,0,13.73-3.88,5.38-20.49h0Z"/>
      <path class="cls-2" d="M55.6,19.94s-13.43,9.57-5.38,20.49c0,0,13.73-3.88,5.38-20.49h0Z"/>
      <path class="cls-2" d="M123.72,18.85s-2.28,18.76,13.18,20.39c0,0,3.9-15.23-13.18-20.39h0Z"/>
      <path class="cls-2" d="M165.66,21.87s-4.25,18.06,10.71,19.99c0,0,5.45-14.62-10.71-19.99h0Z"/>
      <path class="cls-2" d="M69.15,20.09s3.3,11.26,12.14,7.65c0,0-1.56-9.74-12.14-7.65h0Z"/>
      <path class="cls-2" d="M231.1,51.69s-23.65,7.03-17.55,26.39c0,0,21.31,1.16,17.55-26.39h0Z"/>
      <path class="cls-2" d="M82.31,136.54s4.64,11.4,13.96,7.44c0,0-.46-10.64-13.96-7.44h0Z"/>
      <path class="cls-2" d="M201.24,19.32s-24.14,7.59-17.58,27.35c0,0,21.88,.85,17.58-27.35h0Z"/>
      <path class="cls-2" d="M240.17,133.25s-14.37-15-26.52-2.98c0,0,7.33,16.41,26.52,2.98h0Z"/>
      <path class="cls-2" d="M255.39,87.26s-22.58,7.43-16.17,25.92c0,0,20.57,.53,16.17-25.92h0Z"/>
      <path class="cls-2" d="M237.86,91.23s-8.86-15.53-21.53-8.03c0,0,2.7,15.24,21.53,8.03h0Z"/>
      <path class="cls-2" d="M213.66,18.12s-11.27,18.8,4.34,27.82c0,0,14.66-12.03-4.34-27.82h0Z"/>
      <path class="cls-2" d="M222.75,183.45s-18.08-16.13-31.12-1.04c0,0,10.03,18.41,31.12,1.04h0Z"/>
      <path class="cls-2" d="M250.51,151.76s-.31-11.92-10.11-11.51c0,0-3.22,9.8,10.11,11.51h0Z"/>
      <path class="cls-2" d="M1.74,89.87s1.99,12.91,12.59,11.1c0,0,2.14-11.1-12.59-11.1h0Z"/>
      <path class="cls-2" d="M175.96,145.67s-16.63,16.03-3.22,29.5c0,0,18.22-8.22,3.22-29.5h0Z"/>
      <path class="cls-2" d="M36.51,106.09s15.51,19.78,31.58,6.76c0,0-8.07-19.42-31.58-6.76h0Z"/>
      <path class="cls-6" d="M7.88,74.67s22.12,10.77,30.7-7.57c0,0-16.31-13.17-30.7,7.57h0Z"/>
      <path class="cls-6" d="M83.62,51.71s3.56,16.1,16.76,12.96c0,0,1.79-14.15-16.76-12.96h0Z"/>
      <path class="cls-6" d="M116.31,32.31s-9.34,13.59,1.96,21.09c0,0,11.57-8.35-1.96-21.09h0Z"/>
      <path class="cls-6" d="M163.84,8.79s-8.63,6.14-3.46,13.16c0,0,8.82-2.49,3.46-13.16h0Z"/>
      <path class="cls-6" d="M132.47,56.24s-10.39,15,2.09,23.36c0,0,10.18-11.26-2.09-23.36h0Z"/>
      <path class="cls-6" d="M157.05,44.93s6.86,23.44,25.25,15.92c0,0-3.25-20.28-25.25-15.92h0Z"/>
      <path class="cls-6" d="M211.67,90.17s-14.06-7.54-20.08,4.13c0,0,9.26,10.24,20.08-4.13h0Z"/>
      <path class="cls-6" d="M245.87,55.59s-9.48,1-8.53,8.78c0,0,8.01,1.95,8.53-8.78h0Z"/>
      <path class="cls-6" d="M70.48,116.68s-4.87,11.85,4.94,15.7c0,0,7.42-8.23-4.94-15.7h0Z"/>
      <path class="cls-6" d="M234.03,98.36s-36.12-4.89-39.67,24.9c0,0,28.01,14.51,39.67-24.9h0Z"/>
      <path class="cls-6" d="M229.46,144.31s-35.73-4.84-39.23,24.62c0,0,27.7,14.35,39.23-24.62h0Z"/>
      <path class="cls-6" d="M171.74,129.73s-19.19-8.91-26.27,7c0,0,13.04,12.85,26.27-7h0Z"/>
      <path class="cls-6" d="M75.23,194.53s8.72,7.99,15.17,.71c0,0-4.77-9.05-15.17-.71h0Z"/>
      <path class="cls-6" d="M67.6,141.14s-11.99,19.69,4.37,29.3c0,0,14.08-13.18-4.37-29.3h0Z"/>
      <path class="cls-2" d="M21.41,178.1s12.1,15.23,24.47,5.08c0,0-6.55-14.83-24.47-5.08h0Z"/>
      <path class="cls-2" d="M0,135.23s22.81,11.43,31.92-7.49c0,0-16-14.01-31.92,7.49H0Z"/>
      <path class="cls-1" d="M109.88,54.43s-9.28,21.08,8.19,28.43c0,0,11.93-16.75-8.19-28.43h0Z"/>
      <path class="cls-1" d="M89.25,8.07s1.2,22.41,19.63,21.13c0,0,3.28-18.84-19.63-21.13h0Z"/>
      <path class="cls-1" d="M46.57,66.43s7.07,11.51,16.45,5.54c0,0-2.41-11.44-16.45-5.54h0Z"/>
      <path class="cls-1" d="M23.88,40.38s-5.24,12.45,5.08,16.6c0,0,7.9-8.62-5.08-16.6h0Z"/>
      <path class="cls-1" d="M63.91,26.71s-12.16,19.41,3.97,29.16c0,0,15.57-12.27-3.97-29.16h0Z"/>
      <path class="cls-1" d="M158.05,88.82s-8.06,6.28-2.79,12.82c0,0,7.32-4.31,2.79-12.82h0Z"/>
      <path class="cls-1" d="M153.71,29.38s-19.56,9.27-11.68,25.24c0,0,17.14-5.55,11.68-25.24h0Z"/>
      <path class="cls-1" d="M181.39,26.37s9.03-8.92,1.06-15.48c0,0-8.47,6.49-1.06,15.48h0Z"/>
      <path class="cls-1" d="M146.78,3.53s-13.99,10.36-4.44,20.81c0,0,12.76-7.16,4.44-20.81h0Z"/>
      <path class="cls-1" d="M94.44,73.78s-7.04,12.58,3.4,18.2c0,0,9.4-8.2-3.4-18.2h0Z"/>
      <path class="cls-1" d="M205.4,39.86s-30.25,20.33-13.12,44.96c0,0,30.57-7.75,13.12-44.96h0Z"/>
      <path class="cls-1" d="M255.67,126.35s-8.44-11.4-17.71-4.31c0,0,3.55,11.75,17.71,4.31h0Z"/>
      <path class="cls-1" d="M232.02,39.93s-9.48,1-8.53,8.78c0,0,8.01,1.95,8.53-8.78h0Z"/>
      <path class="cls-1" d="M192.32,113.39s-15.16-10.89-23.92,1.72c0,0,9.18,13.29,23.92-1.72h0Z"/>
      <path class="cls-1" d="M259.54,76.27s-14.88-14.4-26.54-1.97c0,0,7.93,16.07,26.54,1.97h0Z"/>
      <path class="cls-1" d="M173.64,66.85s-14.4,18,.59,29.61c0,0,14.99-12.41-.59-29.61h0Z"/>
      <path class="cls-4" d="M246.31,158.72s-22.11-4.25-25.31,13.99c0,0,16.77,9.91,25.31-13.99h0Z"/>
      <path class="cls-1" d="M205.13,143.15s-8.09-19.55-24.07-12.63c0,0,.9,18.29,24.07,12.63h0Z"/>
      <path class="cls-1" d="M192.07,196.55s-9.07-14.34-20.75-6.69c0,0,3.21,14.33,20.75,6.69h0Z"/>
      <path class="cls-1" d="M42.31,123.35s1.04,18.61,16.34,17.5c0,0,3.33-15.23-16.34-17.5h0Z"/>
      <path class="cls-1" d="M6.14,112.89s17.07,10.83,25.75-3.36c0,0-11.33-12.55-25.75,3.36h0Z"/>
      <path class="cls-1" d="M13.93,82.21s7.43,22.87,26.15,16.45c0,0-.87-20.1-26.15-16.45h0Z"/>
      <path class="cls-1" d="M83.81,119.14s11.02,17.51,25.28,8.21c0,0-5.21-16.43-25.28-8.21h0Z"/>
      <path class="cls-1" d="M5.06,144.26s1.54,23.15,20.57,21.57c0,0,3.62-18.99-20.57-21.57h0Z"/>
      <path class="cls-1" d="M44.35,197.34s21.1,8.44,27.76-9.04c0,0-15.24-11.23-27.76,9.04h0Z"/>
      <path class="cls-2" d="M25.8,144.08s4.28,34.14,32.32,30.17c0,0,3.93-28.87-32.32-30.17h0Z"/>
      <path class="cls-3" d="M101.02,167.23c0-5.19-4.21-9.4-9.4-9.4s-9.4,4.21-9.4,9.4,4.21,9.4,9.4,9.4,9.4-4.21,9.4-9.4h0Z"/>
      <path class="cls-3" d="M155,171.38c0-5.74-4.65-10.39-10.39-10.39s-10.39,4.65-10.39,10.39,4.65,10.39,10.39,10.39,10.39-4.65,10.39-10.39h0Z"/>
      <path class="cls-3" d="M141.76,101.86c0-6.67-5.4-12.07-12.07-12.07s-12.07,5.4-12.07,12.07,5.4,12.07,12.07,12.07,12.07-5.4,12.07-12.07h0Z"/>
    </g>
  </g>
</svg>